<svg width="486" height="119" viewBox="0 0 486 119" fill="none" xmlns="http://www.w3.org/2000/svg">
<path d="M52.66 17.7422C75.3068 17.7422 93.6658 36.1562 93.6658 58.8711C93.6657 81.5859 75.3068 100 52.66 100C30.0132 100 11.6542 81.5859 11.6541 58.8711C11.6541 36.1562 30.0131 17.7422 52.66 17.7422ZM48.1092 43.9521C46.3667 39.9985 44.3282 37.5255 39.3934 38.5752C34.9236 39.526 34.569 44.8932 35.2391 47.3125C35.9092 49.7322 38.7237 60.7514 38.4559 65.8594C38.1879 70.9672 41.2354 73.1786 44.2674 73.4844C47.2995 73.7901 51.0639 70.9674 51.4539 65.8594C51.8439 60.7513 50.8151 50.0919 48.1092 43.9521ZM78.657 42.3389C77.1479 38.968 73.4308 36.1448 70.3592 36.9688C67.2876 37.7928 65.7639 42.006 66.9842 45.1973C68.2045 48.3889 70.3592 57.6627 70.3592 62.7695C70.3592 67.8765 73.2188 69.3776 75.9871 69.5215C78.7554 69.6652 82.1698 66.5492 82.3133 60.9629C82.4567 55.3764 79.9971 45.3323 78.657 42.3389Z" fill="black"/>
<ellipse cx="12.8604" cy="12.2312" rx="12.1945" ry="12.2312" fill="black"/>
<path d="M141.41 97.248C127.298 97.248 117.602 86.688 117.602 71.04C117.602 55.2 127.202 44.256 141.026 44.256C149.762 44.256 154.658 49.44 156.386 52.032H157.058V24H169.538V96H157.25V89.568H156.578C155.138 91.68 150.626 97.248 141.41 97.248ZM143.81 86.016C152.162 86.016 157.346 79.296 157.346 70.848C157.346 61.344 151.586 55.584 143.714 55.584C135.746 55.584 130.274 61.92 130.274 70.848C130.274 79.968 135.746 86.016 143.81 86.016ZM199.07 97.248C184.958 97.248 175.262 86.688 175.262 71.04C175.262 55.2 184.862 44.256 198.686 44.256C207.422 44.256 212.318 49.44 214.046 52.032H214.718V45.504H227.198V96H214.91V89.568H214.238C212.798 91.68 208.286 97.248 199.07 97.248ZM201.47 86.016C209.822 86.016 215.006 79.296 215.006 70.848C215.006 61.344 209.246 55.584 201.374 55.584C193.406 55.584 187.934 61.92 187.934 70.848C187.934 79.968 193.406 86.016 201.47 86.016ZM242.33 38.784C237.818 38.784 234.65 36 234.65 31.488C234.65 27.168 237.818 24.288 242.33 24.288C246.842 24.288 250.01 27.168 250.01 31.488C250.01 36 246.842 38.784 242.33 38.784ZM236.09 96V45.504H248.57V96H236.09ZM271.293 96C262.461 96 257.469 90.72 257.469 81.792V24H269.949V80.64C269.949 83.52 271.389 85.056 273.981 85.056H275.997V96H271.293ZM281.104 118.08V106.944H286.288C290.608 106.944 293.008 104.832 294.448 101.088L295.792 97.536L275.728 45.504H288.88L301.456 81.024H302.224L314.416 45.504H327.76L305.488 104.64C302.32 113.184 297.136 118.08 287.344 118.08H281.104ZM361.167 97.248C351.951 97.248 347.343 91.68 345.999 89.568H345.327V96H333.039V24H345.519V52.032H346.191C347.823 49.44 352.719 44.256 361.551 44.256C375.375 44.256 384.975 55.2 384.975 71.04C384.975 86.688 375.279 97.248 361.167 97.248ZM358.671 86.016C366.831 86.016 372.303 79.968 372.303 70.848C372.303 61.92 366.831 55.584 358.767 55.584C350.991 55.584 345.231 61.344 345.231 70.848C345.231 79.296 350.415 86.016 358.671 86.016ZM415.911 97.248C400.071 97.248 389.031 85.824 389.031 70.752C389.031 55.776 399.975 44.256 415.911 44.256C431.751 44.256 442.791 55.776 442.791 70.752C442.791 85.728 431.655 97.248 415.911 97.248ZM415.911 85.92C424.167 85.92 430.119 79.584 430.119 70.752C430.119 62.016 424.167 55.584 415.911 55.584C407.559 55.584 401.703 62.016 401.703 70.752C401.703 79.68 407.655 85.92 415.911 85.92ZM471.84 96C461.376 96 455.04 90.048 455.04 79.2V55.488H446.496V45.6H452.16C454.368 45.6 455.808 44.16 455.808 41.76V31.584H467.52V45.504H481.44V55.488H467.52V78.72C467.52 82.944 469.632 85.632 474.432 85.632H481.152V96H471.84Z" fill="black"/>
</svg>
