<svg width="487" height="119" viewBox="0 0 487 119" fill="none" xmlns="http://www.w3.org/2000/svg">
<path d="M53.3258 17.7422C75.9727 17.7422 94.3317 36.1562 94.3317 58.8711C94.3316 81.5859 75.9726 100 53.3258 100C30.679 100 12.32 81.5859 12.3199 58.8711C12.3199 36.1562 30.679 17.7422 53.3258 17.7422ZM48.775 43.9521C47.0326 39.9985 44.994 37.5255 40.0592 38.5752C35.5894 39.526 35.2349 44.8932 35.9049 47.3125C36.575 49.7322 39.3896 60.7514 39.1217 65.8594C38.8537 70.9672 41.9012 73.1786 44.9332 73.4844C47.9654 73.7901 51.7297 70.9674 52.1198 65.8594C52.5098 60.7513 51.4809 50.0919 48.775 43.9521ZM79.3229 42.3389C77.8137 38.968 74.0966 36.1448 71.025 36.9688C67.9534 37.7928 66.4297 42.006 67.65 45.1973C68.8703 48.3889 71.025 57.6627 71.025 62.7695C71.025 67.8765 73.8847 69.3776 76.653 69.5215C79.4212 69.6652 82.8356 66.5492 82.9791 60.9629C83.1226 55.3764 80.6629 45.3323 79.3229 42.3389Z" fill="white"/>
<ellipse cx="13.5262" cy="12.2312" rx="12.1945" ry="12.2312" fill="white"/>
<path d="M118.269 71.0625C118.269 63.1562 120.441 56.7188 124.785 51.75C129.16 46.75 134.8 44.25 141.707 44.25C143.738 44.25 145.66 44.5312 147.472 45.0938C149.285 45.625 150.8 46.3281 152.019 47.2031C153.269 48.0781 154.285 48.9062 155.066 49.6875C155.847 50.4688 156.504 51.25 157.035 52.0312H157.738V24H170.207V96H157.925V89.5781H157.222C156.722 90.3281 156.129 91.0469 155.441 91.7344C154.785 92.4219 153.847 93.2344 152.629 94.1719C151.41 95.1094 149.879 95.8594 148.035 96.4219C146.222 96.9844 144.238 97.2656 142.082 97.2656C135.019 97.2656 129.285 94.8594 124.879 90.0469C120.472 85.2031 118.269 78.875 118.269 71.0625ZM130.925 70.8281C130.925 75.3906 132.175 79.0625 134.675 81.8438C137.175 84.625 140.441 86.0156 144.472 86.0156C148.535 86.0156 151.8 84.5781 154.269 81.7031C156.769 78.7969 158.019 75.1719 158.019 70.8281C158.019 66.1406 156.754 62.4375 154.222 59.7188C151.691 56.9688 148.41 55.5938 144.379 55.5938C140.41 55.5938 137.175 57.0156 134.675 59.8594C132.175 62.7031 130.925 66.3594 130.925 70.8281ZM175.929 71.0625C175.929 63.1562 178.101 56.7188 182.445 51.75C186.82 46.75 192.46 44.25 199.367 44.25C201.398 44.25 203.32 44.5312 205.132 45.0938C206.945 45.625 208.46 46.3281 209.679 47.2031C210.929 48.0781 211.945 48.9062 212.726 49.6875C213.507 50.4688 214.164 51.25 214.695 52.0312H215.398V45.5156H227.867V96H215.585V89.5781H214.882C214.382 90.3281 213.789 91.0469 213.101 91.7344C212.445 92.4219 211.507 93.2344 210.289 94.1719C209.07 95.1094 207.539 95.8594 205.695 96.4219C203.882 96.9844 201.898 97.2656 199.742 97.2656C192.679 97.2656 186.945 94.8594 182.539 90.0469C178.132 85.2031 175.929 78.875 175.929 71.0625ZM188.585 70.8281C188.585 75.3906 189.835 79.0625 192.335 81.8438C194.835 84.625 198.101 86.0156 202.132 86.0156C206.195 86.0156 209.46 84.5781 211.929 81.7031C214.429 78.7969 215.679 75.1719 215.679 70.8281C215.679 66.1406 214.414 62.4375 211.882 59.7188C209.351 56.9688 206.07 55.5938 202.039 55.5938C198.07 55.5938 194.835 57.0156 192.335 59.8594C189.835 62.7031 188.585 66.3594 188.585 70.8281ZM235.324 31.5C235.324 29.3438 236.042 27.6094 237.48 26.2969C238.917 24.9531 240.761 24.2812 243.011 24.2812C245.261 24.2812 247.105 24.9531 248.542 26.2969C249.98 27.6094 250.699 29.3438 250.699 31.5C250.699 33.7188 249.98 35.4844 248.542 36.7969C247.136 38.1094 245.292 38.7656 243.011 38.7656C240.73 38.7656 238.87 38.1094 237.433 36.7969C236.027 35.4844 235.324 33.7188 235.324 31.5ZM236.777 96V45.5156H249.245V96H236.777ZM258.155 81.7969V24H270.624V80.625C270.624 82.0625 270.968 83.1719 271.655 83.9531C272.374 84.7031 273.374 85.0781 274.655 85.0781H276.671V96H271.937C267.562 96 264.171 94.75 261.765 92.25C259.359 89.75 258.155 86.2656 258.155 81.7969ZM276.394 45.5156H289.565L302.128 81.0469H302.878L315.065 45.5156H328.425L306.159 104.625C304.503 109.094 302.237 112.453 299.362 114.703C296.519 116.953 292.737 118.078 288.019 118.078H281.784V106.922H286.94C289.034 106.922 290.722 106.438 292.003 105.469C293.315 104.5 294.347 103.047 295.097 101.109L296.456 97.5469L276.394 45.5156ZM333.725 96V24H346.194V52.0312H346.85C347.35 51.25 347.991 50.4688 348.772 49.6875C349.554 48.9062 350.554 48.0781 351.772 47.2031C353.022 46.3281 354.554 45.625 356.366 45.0938C358.21 44.5312 360.163 44.25 362.225 44.25C369.132 44.25 374.757 46.75 379.1 51.75C383.475 56.7188 385.663 63.1562 385.663 71.0625C385.663 78.875 383.46 85.2031 379.054 90.0469C374.647 94.8594 368.913 97.2656 361.85 97.2656C359.694 97.2656 357.679 96.9688 355.804 96.375C353.96 95.8125 352.429 95.0781 351.21 94.1719C350.022 93.2656 349.085 92.4531 348.397 91.7344C347.71 91.0156 347.132 90.2969 346.663 89.5781H346.007V96H333.725ZM345.913 70.8281C345.913 75.1719 347.132 78.7969 349.569 81.7031C352.038 84.5781 355.288 86.0156 359.319 86.0156C363.413 86.0156 366.71 84.625 369.21 81.8438C371.71 79.0625 372.96 75.3906 372.96 70.8281C372.96 66.3594 371.694 62.7031 369.163 59.8594C366.663 57.0156 363.413 55.5938 359.413 55.5938C355.444 55.5938 352.194 56.9688 349.663 59.7188C347.163 62.4688 345.913 66.1719 345.913 70.8281ZM389.698 70.7344C389.698 65.7656 390.807 61.2812 393.026 57.2812C395.276 53.25 398.448 50.0781 402.542 47.7656C406.667 45.4219 411.339 44.25 416.557 44.25C421.745 44.25 426.385 45.4219 430.479 47.7656C434.604 50.0781 437.792 53.25 440.042 57.2812C442.323 61.3125 443.464 65.7969 443.464 70.7344C443.464 74.4219 442.792 77.9062 441.448 81.1875C440.104 84.4375 438.26 87.25 435.917 89.625C433.573 91.9688 430.729 93.8281 427.385 95.2031C424.042 96.5781 420.432 97.2656 416.557 97.2656C408.714 97.2656 402.276 94.75 397.245 89.7188C392.214 84.6875 389.698 78.3594 389.698 70.7344ZM402.354 70.7344C402.354 75.1719 403.682 78.8125 406.339 81.6562C409.026 84.5 412.432 85.9219 416.557 85.9219C420.682 85.9219 424.089 84.5 426.776 81.6562C429.464 78.7812 430.807 75.1406 430.807 70.7344C430.807 66.3594 429.464 62.75 426.776 59.9062C424.089 57.0312 420.682 55.5938 416.557 55.5938C412.401 55.5938 408.995 57.0312 406.339 59.9062C403.682 62.75 402.354 66.3594 402.354 70.7344ZM447.17 55.5V45.6094H452.842C453.936 45.6094 454.811 45.2656 455.467 44.5781C456.124 43.8906 456.452 42.9531 456.452 41.7656V31.5938H468.17V45.5156H482.092V55.5H468.17V78.7031C468.17 80.8906 468.749 82.5938 469.905 83.8125C471.061 85.0312 472.795 85.6406 475.108 85.6406H481.811V96H472.483C467.202 96 463.077 94.5469 460.108 91.6406C457.17 88.7344 455.702 84.5938 455.702 79.2188V55.5H447.17Z" fill="white"/>
</svg>
